<svg width="75" height="75" viewBox="0 0 75 75" fill="none" xmlns="http://www.w3.org/2000/svg">
<path d="M37.5 19.898C34.0186 19.898 30.6155 20.9303 27.7208 22.8644C24.8262 24.7986 22.5701 27.5476 21.2378 30.764C19.9056 33.9803 19.557 37.5195 20.2362 40.934C20.9154 44.3484 22.5918 47.4848 25.0535 49.9465C27.5152 52.4082 30.6516 54.0846 34.066 54.7638C37.4805 55.443 41.0197 55.0944 44.236 53.7622C47.4524 52.4299 50.2014 50.1738 52.1356 47.2792C54.0697 44.3845 55.102 40.9814 55.102 37.5C55.0968 32.8333 53.2406 28.3592 49.9407 25.0593C46.6408 21.7594 42.1667 19.9032 37.5 19.898ZM37.5 50.5102C34.9268 50.5102 32.4114 49.7472 30.2719 48.3176C28.1324 46.888 26.4648 44.8561 25.4801 42.4788C24.4954 40.1015 24.2378 37.4856 24.7398 34.9618C25.2418 32.4381 26.4809 30.1199 28.3004 28.3004C30.1199 26.4809 32.4381 25.2418 34.9618 24.7398C37.4856 24.2378 40.1015 24.4954 42.4788 25.4801C44.8561 26.4648 46.888 28.1324 48.3176 30.2719C49.7472 32.4114 50.5102 34.9268 50.5102 37.5C50.5063 40.9493 49.1343 44.2562 46.6952 46.6952C44.2562 49.1343 40.9493 50.5063 37.5 50.5102ZM54.3367 0H20.6633C15.185 0.00627911 9.93282 2.18531 6.05907 6.05907C2.18531 9.93282 0.00627911 15.185 0 20.6633V54.3367C0.00627911 59.815 2.18531 65.0672 6.05907 68.9409C9.93282 72.8147 15.185 74.9937 20.6633 75H54.3367C59.815 74.9937 65.0672 72.8147 68.9409 68.9409C72.8147 65.0672 74.9937 59.815 75 54.3367V20.6633C74.9937 15.185 72.8147 9.93282 68.9409 6.05907C65.0672 2.18531 59.815 0.00627911 54.3367 0ZM70.4082 54.3367C70.4034 58.5977 68.7086 62.6827 65.6957 65.6957C62.6827 68.7086 58.5977 70.4034 54.3367 70.4082H20.6633C16.4023 70.4034 12.3173 68.7086 9.30431 65.6957C6.29136 62.6827 4.5966 58.5977 4.59184 54.3367V20.6633C4.5966 16.4023 6.29136 12.3173 9.30431 9.30431C12.3173 6.29136 16.4023 4.5966 20.6633 4.59184H54.3367C58.5977 4.5966 62.6827 6.29136 65.6957 9.30431C68.7086 12.3173 70.4034 16.4023 70.4082 20.6633V54.3367ZM61.2245 17.602C61.2245 18.3589 61.0001 19.0987 60.5796 19.7279C60.1591 20.3572 59.5615 20.8477 58.8623 21.1373C58.1631 21.4269 57.3937 21.5027 56.6514 21.355C55.9092 21.2074 55.2273 20.843 54.6922 20.3078C54.157 19.7727 53.7926 19.0908 53.645 18.3486C53.4973 17.6063 53.5731 16.8369 53.8627 16.1377C54.1523 15.4385 54.6428 14.8409 55.272 14.4204C55.9013 13.9999 56.6411 13.7755 57.398 13.7755C58.4124 13.7767 59.385 14.1803 60.1024 14.8976C60.8197 15.615 61.2233 16.5876 61.2245 17.602Z" fill="#284482"/>
</svg>
