<svg width="139" height="111" viewBox="0 0 139 111" fill="none" xmlns="http://www.w3.org/2000/svg">
<path d="M50.5505 91.3502L46.6504 104.395H47.3775L48.4021 100.911H53.6738L54.715 104.395H55.4421L51.542 91.3502H50.5505ZM51.0462 92.0107L53.4921 100.283H48.5839L51.0462 92.0107ZM61.2858 98.9459H63.963C64.2439 98.9459 64.5248 98.9294 64.8058 98.8799L66.9872 104.395H67.7308L65.4338 98.7478C66.6732 98.368 67.7308 97.4268 67.7308 95.3958V95.0655C67.7308 92.2584 65.7147 91.5153 63.963 91.5153H60.6248V104.395H61.2858V98.9459ZM61.2858 98.3184V92.1428H63.963C65.2189 92.1428 67.0368 92.6052 67.0368 95.0985V95.3627C67.0368 97.8561 65.2189 98.3184 63.963 98.3184H61.2858ZM76.2203 92.1428H79.6081V91.5153H72.1715V92.1428H75.5593V104.395H76.2203V92.1428ZM87.7949 98.0377C90.1912 98.368 91.2819 99.2101 91.2819 100.944V101.109C91.2819 102.925 89.9102 103.933 87.9767 103.933H87.8776C85.9606 103.933 84.5394 102.76 84.5394 100.267H83.8783V100.432C83.8783 102.942 85.2996 104.56 87.9272 104.56C90.3399 104.56 91.976 103.239 91.976 101.026V100.861C91.976 99.045 90.9183 97.8231 88.1089 97.4433C85.5805 97.0965 84.7377 96.1718 84.7377 94.6527V94.4876C84.7377 92.9189 86.1258 91.9777 87.8776 91.9777H87.9767C90.1747 91.9777 91.1497 93.1005 91.1497 95.8086H91.8107V95.3958C91.8107 92.8528 90.687 91.3502 87.9272 91.3502C85.6631 91.3502 84.0436 92.5887 84.0436 94.6527V94.8178C84.0436 96.2874 84.9856 97.6579 87.7949 98.0377Z" fill="white"/>
<mask id="mask0_164_80" style="mask-type:alpha" maskUnits="userSpaceOnUse" x="45" y="37" width="49" height="50">
<path d="M71.0569 72.2803L78.7697 63.7171L76.9581 59.2424L71.7954 59.281L65.3135 66.3397C65.7022 67.9342 66.0911 69.5287 66.4815 71.1227L71.0575 72.2806L71.0573 72.2803H71.0569ZM60.9516 60.8904L65.872 55.5321C64.8717 54.1608 63.8726 52.7887 62.875 51.4156L57.8161 53.0527L56.8719 58.759L60.9518 60.8904H60.9516ZM66.3234 55.0404L66.377 54.9819L66.4385 55.0386L69.9851 54.9826L68.2044 49.9032L67.8204 49.8152L63.3908 51.2488L66.153 55.0432L66.3234 55.0404ZM66.5544 55.5528L61.2795 61.2971L61.7759 65.0407L65.1271 65.7786L71.3821 58.9667L70.1654 55.496L66.5544 55.5527V55.5528ZM77.8369 73.9963L81.2761 69.9083L78.9852 64.2499L71.6252 72.4245L77.8369 73.9963ZM81.6743 70.2353L78.2162 74.3461C78.5708 75.5503 78.9259 76.7546 79.2816 77.9587L85.146 76.6188L85.5788 70.9196C84.2772 70.6921 82.9757 70.4643 81.6743 70.2353ZM62.7711 50.9066L62.0471 46.065L67.5389 39.7686L67.8304 39.5892L74.6797 37.9785C77.0156 39.4716 79.3528 40.9619 81.69 42.4532L73.8354 42.9922L68.7931 49.1807C72.7833 50.7364 76.7781 52.2845 80.7722 53.8293C82.4981 57.1439 84.2263 60.4585 85.9602 63.7692C88.2725 64.2154 90.595 64.6361 92.9106 65.0678C93.155 66.4684 93.3992 67.8692 93.646 69.2695L91.0454 71.8724C89.3665 71.5809 87.6877 71.2884 86.0092 70.995C85.9457 72.6661 85.8322 74.4115 85.6497 76.8114L85.3436 76.7885L85.4108 77.0885C82.9211 77.6572 81.1457 78.0433 79.4021 78.3671C79.889 80.0143 80.3765 81.6619 80.8651 83.3085L79.2008 86.5985H74.193C73.6456 84.1721 73.103 81.7494 72.565 79.3246C69.0364 78.1057 65.5081 76.8856 61.9808 75.662C59.8653 71.9614 57.7557 68.2569 55.6474 64.5523L50 70.7666L50.6302 78.623L45.1704 72.3456L45.7481 65.3252L45.8823 65.0104L51.2908 58.6425H56.3675L56.6716 56.8045L50.9662 53.2899L51.7141 47.4467L56.9367 46.4998L61.1998 51.2607L61.3005 51.3829L62.7711 50.9068V50.9066ZM68.6763 49.6886L71.8579 58.7645L76.9966 58.726L80.1889 54.1568L68.6759 49.6886H68.6763ZM80.5568 54.5309L77.4237 59.0155L79.2588 63.5478L85.3576 63.7283L80.5568 54.5309ZM60.7707 51.5539L56.7456 47.0587L52.1777 47.8871L51.5205 53.0231L56.7636 56.2524L57.3324 52.814L57.385 52.6527L57.5085 52.6096L60.7711 51.5539H60.7707ZM63.2698 50.7452L67.8056 49.2772L67.5604 40.5289L62.5935 46.2235L63.2698 50.7448V50.7452ZM86.052 64.3108C86.086 66.8526 86.086 68.654 86.0278 70.47L90.8691 71.3159L93.09 69.0928L92.4629 65.5096L86.052 64.3108ZM85.6187 70.3984L85.6295 70.2547L85.5362 64.2494L79.4704 64.0701L81.7594 69.724L85.6187 70.3982V70.3984ZM74.5879 38.5313L68.5661 39.9477L73.7583 42.4791L80.091 42.0442L74.5877 38.5313H74.5879ZM68.3125 48.9534L73.3006 42.8319L68.0696 40.2816L68.3125 48.9534ZM72.4339 78.7329C71.9985 76.7689 71.5663 74.8034 71.1372 72.8345L66.3473 71.6227L62.6321 75.3415L72.4342 78.7331L72.4339 78.7329ZM62.2136 75.0272L65.9828 71.2547L64.7549 66.2268L56.1121 64.3242L62.2136 75.0274V75.0272ZM56.7831 59.2945L56.0409 63.7782H56.0412L56.299 63.8349L61.2399 64.9225L60.77 61.3773L56.7831 59.2945ZM72.9748 78.8357L78.7755 78.059L77.724 74.501L71.6974 72.9762L72.9748 78.8357ZM78.8938 78.4597C77.1997 78.7641 75.4724 79.0208 73.087 79.3415L74.6055 86.08H78.8844L80.3123 83.2579L78.894 78.4597H78.8938ZM55.5199 63.7645L56.282 59.1602H51.5288L46.6381 64.9187L55.5029 63.8437L55.5199 63.7645ZM46.2117 66.0004L45.704 72.17L49.9891 77.0966L49.4811 70.7646L46.2117 66.0004ZM49.7614 70.2604L55.0712 64.4174L46.4677 65.4606L49.7614 70.2604Z" fill="white"/>
</mask>
<g mask="url(#mask0_164_80)">
<path d="M71.0569 72.2803L78.7697 63.7171L76.9581 59.2424L71.7954 59.281L65.3135 66.3397C65.7022 67.9342 66.0911 69.5287 66.4815 71.1227L71.0575 72.2806L71.0573 72.2803H71.0569ZM60.9516 60.8904L65.872 55.5321C64.8717 54.1608 63.8726 52.7887 62.875 51.4156L57.8161 53.0527L56.8719 58.759L60.9518 60.8904H60.9516ZM66.3234 55.0404L66.377 54.9819L66.4385 55.0386L69.9851 54.9826L68.2044 49.9032L67.8204 49.8152L63.3908 51.2488L66.153 55.0432L66.3234 55.0404ZM66.5544 55.5528L61.2795 61.2971L61.7759 65.0407L65.1271 65.7786L71.3821 58.9667L70.1654 55.496L66.5544 55.5527V55.5528ZM77.8369 73.9963L81.2761 69.9083L78.9852 64.2499L71.6252 72.4245L77.8369 73.9963ZM81.6743 70.2353L78.2162 74.3461C78.5708 75.5503 78.9259 76.7546 79.2816 77.9587L85.146 76.6188L85.5788 70.9196C84.2772 70.6921 82.9757 70.4643 81.6743 70.2353ZM62.7711 50.9066L62.0471 46.065L67.5389 39.7686L67.8304 39.5892L74.6797 37.9785C77.0156 39.4716 79.3528 40.9619 81.69 42.4532L73.8354 42.9922L68.7931 49.1807C72.7833 50.7364 76.7781 52.2845 80.7722 53.8293C82.4981 57.1439 84.2263 60.4585 85.9602 63.7692C88.2725 64.2154 90.595 64.6361 92.9106 65.0678C93.155 66.4684 93.3992 67.8692 93.646 69.2695L91.0454 71.8724C89.3665 71.5809 87.6877 71.2884 86.0092 70.995C85.9457 72.6661 85.8322 74.4115 85.6497 76.8114L85.3436 76.7885L85.4108 77.0885C82.9211 77.6572 81.1457 78.0433 79.4021 78.3671C79.889 80.0143 80.3765 81.6619 80.8651 83.3085L79.2008 86.5985H74.193C73.6456 84.1721 73.103 81.7494 72.565 79.3246C69.0364 78.1057 65.5081 76.8856 61.9808 75.662C59.8653 71.9614 57.7557 68.2569 55.6474 64.5523L50 70.7666L50.6302 78.623L45.1704 72.3456L45.7481 65.3252L45.8823 65.0104L51.2908 58.6425H56.3675L56.6716 56.8045L50.9662 53.2899L51.7141 47.4467L56.9367 46.4998L61.1998 51.2607L61.3005 51.3829L62.7711 50.9068V50.9066ZM68.6763 49.6886L71.8579 58.7645L76.9966 58.726L80.1889 54.1568L68.6759 49.6886H68.6763ZM80.5568 54.5309L77.4237 59.0155L79.2588 63.5478L85.3576 63.7283L80.5568 54.5309ZM60.7707 51.5539L56.7456 47.0587L52.1777 47.8871L51.5205 53.0231L56.7636 56.2524L57.3324 52.814L57.385 52.6527L57.5085 52.6096L60.7711 51.5539H60.7707ZM63.2698 50.7452L67.8056 49.2772L67.5604 40.5289L62.5935 46.2235L63.2698 50.7448V50.7452ZM86.052 64.3108C86.086 66.8526 86.086 68.654 86.0278 70.47L90.8691 71.3159L93.09 69.0928L92.4629 65.5096L86.052 64.3108ZM85.6187 70.3984L85.6295 70.2547L85.5362 64.2494L79.4704 64.0701L81.7594 69.724L85.6187 70.3982V70.3984ZM74.5879 38.5313L68.5661 39.9477L73.7583 42.4791L80.091 42.0442L74.5877 38.5313H74.5879ZM68.3125 48.9534L73.3006 42.8319L68.0696 40.2816L68.3125 48.9534ZM72.4339 78.7329C71.9985 76.7689 71.5663 74.8034 71.1372 72.8345L66.3473 71.6227L62.6321 75.3415L72.4342 78.7331L72.4339 78.7329ZM62.2136 75.0272L65.9828 71.2547L64.7549 66.2268L56.1121 64.3242L62.2136 75.0274V75.0272ZM56.7831 59.2945L56.0409 63.7782H56.0412L56.299 63.8349L61.2399 64.9225L60.77 61.3773L56.7831 59.2945ZM72.9748 78.8357L78.7755 78.059L77.724 74.501L71.6974 72.9762L72.9748 78.8357ZM78.8938 78.4597C77.1997 78.7641 75.4724 79.0208 73.087 79.3415L74.6055 86.08H78.8844L80.3123 83.2579L78.894 78.4597H78.8938ZM55.5199 63.7645L56.282 59.1602H51.5288L46.6381 64.9187L55.5029 63.8437L55.5199 63.7645ZM46.2117 66.0004L45.704 72.17L49.9891 77.0966L49.4811 70.7646L46.2117 66.0004ZM49.7614 70.2604L55.0712 64.4174L46.4677 65.4606L49.7614 70.2604Z" fill="white" stroke="white" stroke-width="60"/>
</g>
<path d="M8.36487 62.1539L5.36719 61.5538L7.05555 53.1346L10.0532 53.735L9.50125 56.4872L26.3531 59.8612L25.7686 62.7755L8.91683 59.4016L8.36487 62.1539Z" fill="white"/>
<path d="M27.0775 56.3078L9.87646 45.2131L11.37 41.9011L31.083 47.4254L29.895 50.0601L25.9018 48.8661L24.7252 51.4756L28.2657 53.6732L27.0775 56.3078ZM16.6928 46.1085L16.1817 45.969L16.1138 46.1195L16.557 46.4096L22.0322 49.8104L22.8695 47.9536L16.6928 46.1085Z" fill="white"/>
<path d="M35.4123 41.6795L27.732 37.6461L27.2407 38.2752L33.9722 43.5238L32.142 45.8671L16.1821 33.4232L18.0121 31.0799C20.1979 28.281 22.715 28.3236 25.7333 30.677C27.3183 31.9128 28.4296 33.4424 28.3429 34.8062L37.2422 39.3363L35.4123 41.6795ZM25.0692 36.5822C25.3233 36.2569 25.6189 35.789 25.5859 35.2049C25.553 34.6207 25.1871 33.8815 24.058 33.0012C22.9287 32.1207 22.1004 31.9288 21.5253 32.0389C20.9502 32.149 20.5898 32.566 20.3355 32.8915L25.0692 36.5822Z" fill="white"/>
<path d="M27.1464 25.2355L25.2085 22.8728L31.8552 17.4302L33.7931 19.7928L31.6201 21.5721L42.5139 34.8547L40.2132 36.7386L29.3194 23.4562L27.1464 25.2355Z" fill="white"/>
<path d="M45.3287 32.5652L39.0625 13.0898L42.3186 11.474L54.0613 28.2318L51.4711 29.517L49.1401 26.0646L46.5746 27.3377L47.9188 31.2798L45.3287 32.5652ZM43.7665 18.0994L43.4598 17.6678L43.3118 17.7413L43.4705 18.2463L45.5479 24.3442L47.3735 23.4384L43.7665 18.0994Z" fill="white"/>
<path d="M61.0546 26.5293L57.6729 18.5456L56.8936 18.721L58.7708 27.0436L55.8688 27.6971L51.4185 7.96421L54.3204 7.31081C57.7864 6.53035 59.7063 8.15746 60.5478 11.8892C60.99 13.8491 60.8791 15.736 59.947 16.7358L63.9566 25.876L61.0546 26.5293ZM56.2882 16.0362C56.6913 15.9455 57.2166 15.7708 57.5616 15.2981C57.9068 14.8254 58.0927 14.0219 57.7778 12.6258C57.4628 11.2298 56.9441 10.5567 56.4294 10.2776C55.9147 9.99857 55.3712 10.0927 54.9682 10.1835L56.2882 16.0362Z" fill="white"/>
<path d="M74.2873 5.58135L74.0664 21.6518C74.0275 22.4771 73.8519 23.2178 73.5403 23.8465C73.2849 24.3934 72.8921 24.911 72.3358 25.3163C71.7789 25.7489 71.0319 25.9865 70.0404 25.973C69.049 25.9592 68.2813 25.701 67.7365 25.2532C67.1913 24.8329 66.8406 24.305 66.6002 23.7513C66.3059 23.1143 66.1509 22.369 66.1348 21.543L66.3557 5.47253L69.3299 5.51334L69.109 21.584C69.1011 22.1617 69.2335 22.5488 69.5047 22.8554C69.6406 22.9949 69.8323 23.0802 70.0802 23.0835C70.6033 23.0906 70.8558 22.7639 70.9717 22.3525C71.0569 22.1612 71.0879 21.9138 71.0919 21.6111L71.3128 5.54055L74.2873 5.58135Z" fill="white"/>
<path d="M84.3412 14.7521L85.1085 11.7382C85.2442 11.2048 85.2325 10.8043 85.0472 10.4164C84.9477 10.2491 84.7545 10.1148 84.5142 10.0537C84.007 9.92482 83.6717 10.2371 83.4767 10.5567C83.3423 10.7497 83.2545 10.983 83.1866 11.2497L80.1852 23.0384C80.0427 23.5985 80.081 24.0058 80.2733 24.3671C80.3728 24.5342 80.5392 24.6618 80.7795 24.7229C81.2867 24.8518 81.6084 24.5928 81.817 24.22C81.9446 24.0535 82.0324 23.8204 82.1071 23.5268L83.0101 19.9796L81.8625 19.6879L82.4804 17.2608L86.511 18.2853L84.0257 28.047L82.3173 27.6127L82.2079 26.591C81.5045 27.1221 80.608 27.4054 79.6738 27.168C78.7395 26.9306 78.16 26.5277 77.7882 25.9787C77.4096 25.4565 77.2184 24.8683 77.1406 24.2807C77.0565 23.6062 77.133 22.859 77.3635 22.0656L80.3038 10.5169C80.5274 9.75027 80.871 9.07086 81.3207 8.53204C81.6967 8.05969 82.1796 7.61446 82.8153 7.3501C83.451 7.08574 84.2663 7.00899 85.2272 7.25326C86.1882 7.49752 86.841 7.94743 87.2729 8.48318C87.7049 9.01895 87.9429 9.64736 88.0472 10.2419C88.1847 10.9299 88.1616 11.6908 87.9914 12.471L87.224 15.4848L84.3412 14.7521Z" fill="white"/>
<path d="M102.978 14.7771L95.4866 28.9996C95.0773 29.7173 94.5846 30.298 94.0215 30.7171C93.5457 31.0888 92.9607 31.3721 92.2807 31.481C91.5881 31.6142 90.8145 31.4875 89.937 31.0258C89.0597 30.5644 88.4927 29.9865 88.2105 29.3405C87.9154 28.7187 87.8423 28.0894 87.8796 27.4869C87.9064 26.7858 88.1065 26.0514 88.467 25.308L95.9586 11.0856L98.591 12.4699L91.0993 26.6923C90.83 27.2038 90.7723 27.6087 90.8748 28.0048C90.9326 28.1907 91.0646 28.3534 91.2841 28.4688C91.7471 28.7123 92.1204 28.5354 92.4104 28.2215C92.5733 28.0894 92.7132 27.883 92.8542 27.6151L100.346 13.3928L102.978 14.7771Z" fill="white"/>
<path d="M108.204 18.4365L110.538 20.2795L97.9845 36.1486L95.6509 34.3057L108.204 18.4365Z" fill="white"/>
<path d="M110.248 33.3987L110.799 32.6023L110.691 32.4768L101.964 39.9376L100.191 37.8675L115.574 24.717L117.293 26.7246L111.157 35.7726L110.607 36.5693L110.714 36.6948L119.441 29.2337L121.214 31.304L105.832 44.4545L104.113 42.4469L110.248 33.3987Z" fill="white"/>
<path d="M117.524 47.5177L116.5 45.4448L108.597 49.3436L107.28 46.6787L125.432 37.7233L126.749 40.3884L119.241 44.0923L120.266 46.1651L127.774 42.4612L129.09 45.1263L110.938 54.0815L109.621 51.4164L117.524 47.5177Z" fill="white"/>
<path d="M111.599 55.6617L132.028 54.3221L132.805 57.8708L113.683 65.1787L113.065 62.3558L116.983 60.9357L116.371 58.1398L112.217 58.4846L111.599 55.6617ZM126.022 57.6637L126.515 57.4714L126.48 57.31L125.951 57.3412L119.526 57.8725L119.962 59.8619L126.022 57.6637Z" fill="white"/>
</svg>
