<svg width="55" height="55" viewBox="0 0 55 55" fill="none" xmlns="http://www.w3.org/2000/svg">
<path d="M27.4921 0C22.6983 0.0012898 17.9881 1.25572 13.8286 3.63887C9.66912 6.02203 6.2049 9.45113 3.77946 13.5861C1.35403 17.721 0.0516594 22.4182 0.00150544 27.2118C-0.0486485 32.0053 1.15516 36.7287 3.49354 40.9135L1.12841 49.1908C0.943426 49.8379 0.934874 50.5227 1.10364 51.1742C1.2724 51.8257 1.61234 52.4202 2.08821 52.8961C2.56409 53.372 3.15858 53.712 3.81007 53.8808C4.46157 54.0496 5.14635 54.0411 5.79345 53.8561L14.071 51.491C17.7379 53.5415 21.8259 54.7244 26.0211 54.9489C30.2164 55.1733 34.4073 54.4334 38.272 52.7859C42.1367 51.1384 45.5725 48.6271 48.3155 45.4448C51.0585 42.2626 53.0357 38.4941 54.0953 34.4287C55.155 30.3633 55.2688 26.1091 54.4282 21.9928C53.5876 17.8765 51.8148 14.0076 49.246 10.6832C46.6772 7.35876 43.3807 4.66725 39.6097 2.81532C35.8386 0.963384 31.6933 0.000294253 27.4921 0ZM27.4921 51.75C23.1355 51.753 18.8588 50.581 15.1125 48.3574C14.923 48.2448 14.7125 48.1721 14.494 48.1438C14.2754 48.1154 14.0533 48.132 13.8414 48.1925L4.90481 50.7457C4.81241 50.7722 4.71463 50.7734 4.62159 50.7493C4.52856 50.7252 4.44365 50.6767 4.37569 50.6088C4.30772 50.5408 4.25916 50.456 4.23504 50.3629C4.21092 50.2699 4.21213 50.1721 4.23853 50.0797L6.79153 41.1429C6.85206 40.931 6.86866 40.709 6.84029 40.4905C6.81193 40.2721 6.7392 40.0617 6.62657 39.8723C3.8943 35.2691 2.76118 29.8914 3.40373 24.5771C4.04627 19.2628 6.42841 14.3102 10.179 10.4908C13.9297 6.67139 18.8382 4.19969 24.14 3.46072C29.4418 2.72176 34.8391 3.75701 39.4912 6.40522C44.1433 9.05343 47.7889 13.1659 49.8602 18.102C51.9314 23.038 52.312 28.5206 50.9426 33.6955C49.5732 38.8704 46.5308 43.4471 42.2892 46.7127C38.0476 49.9783 32.8451 51.7493 27.4921 51.75ZM41.374 32.0222L35.8594 28.8706C35.2772 28.5387 34.6173 28.3675 33.9472 28.3747C33.2771 28.3819 32.621 28.5672 32.0461 28.9115L28.5839 30.9888C26.6398 29.9394 25.045 28.3445 23.9957 26.4003L26.073 22.9382C26.4174 22.3633 26.6027 21.7071 26.6098 21.037C26.6169 20.3669 26.4456 19.7069 26.1134 19.1249L22.9623 13.6103C22.6578 13.0789 22.2185 12.6372 21.6888 12.3298C21.1591 12.0224 20.5576 11.8601 19.9452 11.8594C17.5207 11.8601 15.1952 12.8214 13.4777 14.5327C11.7602 16.244 10.7906 18.566 10.7811 20.9906C10.7768 24.0373 11.3731 27.055 12.536 29.8711C13.699 32.6872 15.4056 35.2464 17.5585 37.4023C19.7113 39.5582 22.2681 41.2686 25.0825 42.4355C27.8969 43.6025 30.9138 44.2031 33.9605 44.2031H33.9937C36.4182 44.1936 38.7402 43.2241 40.4516 41.5066C42.1629 39.7891 43.1241 37.4636 43.1249 35.0391C43.1242 34.4266 42.9619 33.8252 42.6545 33.2955C42.3471 32.7659 41.9054 32.3266 41.374 32.0222ZM33.9891 40.9688H33.9608C31.3392 40.9688 28.7433 40.4519 26.3216 39.4478C23.8999 38.4437 21.6999 36.9721 19.8474 35.117C17.995 33.2619 16.5264 31.0599 15.5257 28.6368C14.525 26.2136 14.0118 23.617 14.0155 20.9954C14.0225 19.4275 14.6504 17.9262 15.7617 16.8201C16.873 15.7141 18.3773 15.0933 19.9452 15.0938C19.9876 15.0938 20.0293 15.105 20.0659 15.1263C20.1026 15.1476 20.133 15.1782 20.1541 15.215L23.3052 20.7296C23.3526 20.8127 23.3771 20.907 23.3761 21.0026C23.3751 21.0983 23.3487 21.192 23.2995 21.2741L20.7686 25.4923C20.6345 25.7159 20.5565 25.9687 20.5412 26.229C20.5259 26.4894 20.5738 26.7495 20.6807 26.9874C22.1419 30.2394 24.7451 32.8425 27.9972 34.3035C28.235 34.4105 28.4952 34.4584 28.7555 34.4431C29.0159 34.4277 29.2686 34.3496 29.4923 34.2154L33.7099 31.685C33.7921 31.6359 33.8858 31.6095 33.9815 31.6084C34.0773 31.6073 34.1716 31.6316 34.2549 31.6788L39.7695 34.8304C39.8062 34.8515 39.8367 34.8819 39.858 34.9185C39.8792 34.9551 39.8904 34.9967 39.8905 35.0391C39.8909 36.607 39.2702 38.1112 38.1642 39.2225C37.0582 40.3338 35.557 40.9617 33.9891 40.9688Z" fill="#284482"/>
</svg>
